# xmcd
#
# Track frame offsets:
#	150
#	21145
#	30417
#	42067
#	54572
#	72665
#	85280
#	127692
#	141670
#	154317
#	167675
#	176217
#	195042
#
# Disc length: 2861 seconds
#
# Revision: 1
# Processed by: cddbd v1.4PL0 Copyright (c) Steve Scherf et al.
# Submitted via: audiograbber 1.80
#
DISCID=ab0b2b0d
DTITLE=Verschiedene - Blue Jeans
DYEAR=1900
DGENRE=
TTITLE0=Konjunktur Cha-Cha
TTITLE1=Wild One
TTITLE2=Blue Jeans Boy
TTITLE3=How do you do?
TTITLE4=Wo meine Sonne scheint
TTITLE5=Shout
TTITLE6=Italien-Medlay
TTITLE7=Wenn Teenager träumen
TTITLE8=Ein kleines Einfamilienhaus
TTITLE9=Ein Schiff wird kommen
TTITLE10=Ich bin ein Mann
TTITLE11=Unchained Melody
TTITLE12=Roch around the Clock
EXTD=
EXTT0=
EXTT1=
EXTT2=
EXTT3=
EXTT4=
EXTT5=
EXTT6=
EXTT7=
EXTT8=
EXTT9=
EXTT10=
EXTT11=
EXTT12=
PLAYORDER=
